HIERARCHY
ROOT root
{
	OFFSET	0	13.1	24.9
	CHANNELS 6  Xposition Yposition Zposition Xrotation Yrotation Zrotation
	JOINT spine_1
	{
		OFFSET	0	9.99999	0
		CHANNELS 3  Xrotation Yrotation Zrotation
		JOINT spine_2
		{
			OFFSET	0	112	-10
			CHANNELS 3  Xrotation Yrotation Zrotation
			JOINT spine_3
			{
				OFFSET	0	206.5	19.3
				CHANNELS 3  Xrotation Yrotation Zrotation
				JOINT spine_4
				{
					OFFSET	0	110.4	14.6
					CHANNELS 3  Xrotation Yrotation Zrotation
					JOINT neck_1
					{
						OFFSET	0	71.8	-50.3
						CHANNELS 3  Xrotation Yrotation Zrotation
						JOINT neck_2
						{
							OFFSET	0	86.2	-25.8
							CHANNELS 3  Xrotation Yrotation Zrotation
							JOINT head_ee
							{
								OFFSET	0	179.8	-8.7
								CHANNELS 3  Xrotation Yrotation Zrotation
								End Site
								{
									OFFSET	1	0	0
								}
							}
						}
					}
					JOINT left_clavicle
					{
						OFFSET	-43.2	22.4	-70.8
						CHANNELS 3  Xrotation Yrotation Zrotation
						JOINT left_shoulder
						{
							OFFSET	-93.9	-5.79999	48.7
							CHANNELS 3  Xrotation Yrotation Zrotation
							JOINT left_elbow
							{
								OFFSET	-291.4	-30.8	15.2
								CHANNELS 3  Xrotation Yrotation Zrotation
								JOINT left_lowarm_twist
								{
									OFFSET	-110.7	-3.89999	13.6
									CHANNELS 3  Xrotation Yrotation Zrotation
									JOINT left_hand
									{
										OFFSET	-110.7	-3.89999	13.6
										CHANNELS 3  Xrotation Yrotation Zrotation
										JOINT left_ee
										{
											OFFSET	-80.8	-5.10001	12.1
											CHANNELS 3  Xrotation Yrotation Zrotation
											End Site
											{
												OFFSET	1	0	0
											}
										}
									}
								}
							}
						}
					}
					JOINT right_clavicle
					{
						OFFSET	43.2	22.4	-70.8
						CHANNELS 3  Xrotation Yrotation Zrotation
						JOINT right_shoulder
						{
							OFFSET	93.9	-5.79999	48.7
							CHANNELS 3  Xrotation Yrotation Zrotation
							JOINT right_elbow
							{
								OFFSET	291.4	-30.8	15.2
								CHANNELS 3  Xrotation Yrotation Zrotation
								JOINT right_lowarm_twist
								{
									OFFSET	110.7	-3.89999	13.6
									CHANNELS 3  Xrotation Yrotation Zrotation
									JOINT right_hand
									{
										OFFSET	110.7	-3.89999	13.6
										CHANNELS 3  Xrotation Yrotation Zrotation
										JOINT right_ee
										{
											OFFSET	80.8	-5.10001	12.1
											CHANNELS 3  Xrotation Yrotation Zrotation
											End Site
											{
												OFFSET	1	0	0
											}
										}
									}
								}
							}
						}
					}
				}
			}
		}
	}
	JOINT left_hip
	{
		OFFSET	-82.8	-127.5	0.300001
		CHANNELS 3  Xrotation Yrotation Zrotation
		JOINT left_knee
		{
			OFFSET	-28.2	-396.7	2.2
			CHANNELS 3  Xrotation Yrotation Zrotation
			JOINT left_ankle
			{
				OFFSET	-11.7	-411.3	35.4
				CHANNELS 3  Xrotation Yrotation Zrotation
				JOINT left_toes
				{
					OFFSET	0	-60	-88.6
					CHANNELS 3  Xrotation Yrotation Zrotation
					JOINT left_foot_ee
					{
						OFFSET	-22.5	-16.5	-42.2
						CHANNELS 3  Xrotation Yrotation Zrotation
						End Site
						{
							OFFSET	1	0	0
						}
					}
				}
			}
		}
	}
	JOINT right_hip
	{
		OFFSET	82.8	-127.5	0.300001
		CHANNELS 3  Xrotation Yrotation Zrotation
		JOINT right_knee
		{
			OFFSET	28.2	-396.7	2.2
			CHANNELS 3  Xrotation Yrotation Zrotation
			JOINT right_ankle
			{
				OFFSET	11.7	-411.3	35.4
				CHANNELS 3  Xrotation Yrotation Zrotation
				JOINT right_toes
				{
					OFFSET	0	-60	-88.6
					CHANNELS 3  Xrotation Yrotation Zrotation
					JOINT right_foot_ee
					{
						OFFSET	22.5	-16.5	-42.2
						CHANNELS 3  Xrotation Yrotation Zrotation
						End Site
						{
							OFFSET	1	0	0
						}
					}
				}
			}
		}
	}
}
MOTION
Frames: 7
Frame Time: 0.02
2970.40075922 689.756 -1865.1294185 -1.21507280493 27.8145215876 4.82206272698 2.24422 -0.240455 -1.08338 2.24485 -0.171034 -1.09648 2.24809 0.0197229 -1.10956 2.24641 -0.155749 -1.09876 -11.5658 8.58561 3.90194 -11.617 13.7272 6.11989 -0.0 0.0 -0.0 4.8215 -1.32203 9.26268 -0.273326 -28.8691 66.925 0.731219 -19.9116 0.128354 4.76876 0.143441 -0.592064 -1.97918 10.2836 -8.43015 -0.0 0.0 -0.0 5.79118 7.74894 -10.9533 -54.0298 76.5849 -47.8203 0.207512 5.86928 -0.0106379 -16.4644 0.861514 -1.91366 -3.64093 -12.0436 18.412 0.0 0.0 0.0 15.9591 -15.3141 -1.5947 -24.624 0.212169 3.74381 38.6736 20.1552 -4.90756 -18.2706 0.0 0.0 -0.0 0.0 -0.0 16.8636 32.7166 -14.8472 -40.6047 0.505683 -6.08271 32.1663 -21.7785 4.27738 31.8209 -0.0 -0.0 0.0 0.0 0.0 
2952.75080062 691.61 -1864.13987505 -1.50339851378 27.2523196315 5.77671800707 2.21339 -0.271591 -1.5871 2.21477 -0.170063 -1.60116 2.21943 0.108133 -1.60653 2.21585 -0.146912 -1.60345 -12.0964 8.03628 1.56529 -12.2017 14.2435 3.79441 -0.0 0.0 -0.0 5.48356 0.971646 10.6279 3.14941 -30.4176 66.9303 0.777792 -21.0714 0.144659 3.89374 0.120824 -0.482578 -2.22574 9.64608 -10.3449 -0.0 0.0 -0.0 5.43428 7.88602 -10.2078 -56.2362 75.0882 -46.2271 0.197987 5.60163 -0.00968601 -15.3283 0.784665 -1.79018 -3.04638 -11.1143 14.9746 0.0 0.0 0.0 16.8997 -12.4178 -1.89785 -26.7203 0.155649 4.06054 38.7608 19.8042 -4.90795 -17.2771 0.0 0.0 -0.0 0.0 -0.0 17.1637 32.4316 -13.9337 -39.8939 0.460032 -5.98343 33.0241 -20.2683 4.3393 32.3189 -0.0 -0.0 0.0 0.0 0.0 
2931.26614327 699.274 -1871.16139074 -1.39628722823 28.6171917012 6.05611359614 1.82392 -0.300414 -1.91631 1.82595 -0.177888 -1.93154 1.832 0.170395 -1.93221 1.82682 -0.136842 -1.93488 -11.5578 8.18441 2.05936 -11.6453 14.1624 4.24265 -0.0 0.0 -0.0 6.32072 1.96627 12.2634 4.30009 -31.8736 65.3145 0.852182 -22.8866 0.172504 2.24108 0.073553 -0.276771 -2.62174 7.98946 -13.7949 -0.0 0.0 -0.0 5.04797 7.46528 -9.43245 -63.7767 74.3064 -39.951 0.285433 8.04818 -0.0200801 -14.9135 0.757227 -1.74473 -2.51528 -11.8305 11.1263 0.0 0.0 0.0 16.9957 -8.92291 -2.11915 -27.4069 0.134621 4.16381 34.3778 18.8315 -4.45424 -16.8322 0.0 0.0 -0.0 0.0 -0.0 18.4659 32.4963 -14.1477 -39.335 0.425003 -5.90498 34.0893 -18.7877 4.42363 32.8083 -0.0 -0.0 0.0 0.0 0.0 
2895.28285178 700.871 -1881.94975951 -0.558007711735 31.9942189391 5.67982810596 1.57447 -0.398754 -2.33899 1.57748 -0.249152 -2.3596 1.58806 0.1869 -2.36535 1.58031 -0.1889 -2.36519 -11.9015 7.9358 0.893781 -12.0105 14.47 3.0986 -0.0 0.0 -0.0 7.77408 4.17721 15.0393 5.19312 -33.4886 62.2949 0.998513 -26.318 0.233451 -0.564943 -0.0202477 0.0693063 -3.13495 6.77087 -17.9092 -0.0 0.0 -0.0 4.90006 8.57442 -9.06457 -62.05 72.9781 -43.6634 0.343493 9.65694 -0.0290159 -13.6166 0.673567 -1.60137 -1.22606 -11.2906 3.13205 0.0 0.0 0.0 16.1579 -0.893797 -2.61442 -28.6559 0.0931975 4.35102 37.8219 18.7212 -4.79541 -19.0867 0.0 0.0 -0.0 0.0 -0.0 21.3826 30.5463 -15.4808 -37.6451 0.323786 -5.66577 36.7028 -19.5827 4.70368 33.7225 -0.0 -0.0 0.0 0.0 0.0 
2851.00843607 703.111 -1884.08143228 -0.603972398572 35.7262093469 5.64939728034 1.46247 -0.455817 -2.18719 1.46507 -0.315752 -2.21175 1.47768 0.0986015 -2.23199 1.47082 -0.255048 -2.21956 -12.0238 8.4412 1.6575 -12.1382 14.9477 3.99133 -0.0 0.0 -0.0 7.80248 4.97023 15.0665 6.66632 -34.4688 61.2393 1.21302 -31.0002 0.336415 -3.00575 -0.115555 0.366357 -3.40822 6.36212 -20.0231 -0.0 0.0 -0.0 4.87986 8.50393 -9.02688 -62.3015 72.0003 -44.4798 0.396712 11.1182 -0.0386123 -12.7987 0.622491 -1.51002 -0.252399 -11.3618 -3.08545 0.0 0.0 0.0 14.6856 2.33064 -2.58482 -30.1656 0.0376899 4.57605 41.191 18.7421 -5.10821 -21.488 0.0 0.0 -0.0 0.0 -0.0 25.2276 30.1948 -15.0128 -36.3548 0.251295 -5.48122 34.3626 -22.5139 4.52961 33.2417 -0.0 -0.0 0.0 0.0 0.0 
2831.14322237 697.279 -1881.42934759 0.185581967656 37.6371624603 4.66238150535 1.13503 -0.491715 -1.81258 1.13678 -0.375399 -1.84019 1.14937 -0.0179993 -1.87799 1.14459 -0.314315 -1.85159 -12.4199 7.00334 1.11723 -12.509 12.5891 3.10136 -0.0 0.0 -0.0 8.15747 3.57477 15.803 5.95056 -35.5263 56.5593 1.34714 -33.7148 0.408215 -3.96438 -0.156439 0.481888 -3.50583 8.2194 -19.6726 -0.0 0.0 -0.0 4.94725 8.75159 -9.15192 -49.407 69.5592 -56.4486 0.329549 9.27187 -0.0267229 -11.1721 0.524823 -1.32623 -0.666002 -11.7745 -0.633852 0.0 0.0 0.0 9.74587 4.82063 -1.59747 -26.1052 0.173433 3.96782 41.4981 17.2619 -5.10469 -20.887 0.0 0.0 -0.0 0.0 -0.0 35.0682 27.7263 -15.6649 -38.6581 0.383613 -5.80952 30.0728 -24.6609 4.10754 34.0344 -0.0 -0.0 0.0 0.0 0.0 
2818.69933589 698.974 -1877.51675542 0.374940608093 39.5967776214 4.22527885394 1.10469 -0.582703 -1.68365 1.10614 -0.474403 -1.7173 1.1209 -0.137767 -1.77627 1.11674 -0.416525 -1.73225 -13.2815 7.61149 0.923809 -13.4112 13.9185 3.20368 -0.0 0.0 -0.0 8.34534 0.0318132 16.2805 7.22196 -32.9092 55.6103 1.27077 -32.189 0.36667 -3.77287 -0.148116 0.458862 -3.64349 7.80721 -20.8605 -0.0 0.0 -0.0 4.8905 8.24165 -9.0642 -56.3045 71.8632 -49.7359 0.400921 11.2332 -0.0394282 -12.3712 0.596312 -1.46197 -0.177587 -12.7864 -4.14176 0.0 0.0 0.0 9.59817 8.27981 -1.94583 -26.7263 0.15547 4.06145 39.4495 19.743 -4.97144 -22.9195 0.0 0.0 -0.0 0.0 -0.0 36.1521 27.7659 -15.5607 -33.7059 0.115627 -5.0976 26.8663 -26.2459 3.76492 33.1196 -0.0 -0.0 0.0 0.0 0.0 
